<svg viewBox="0 0 1234 1233" fill="none" xmlns="http://www.w3.org/2000/svg">
<rect x="1" width="1233" height="1233" fill="#F87C56"></rect>
<path d="M628.539 361.265L692.781 264.811C695.49 260.752 692.564 255.322 687.685 255.322H559.207C554.308 255.322 551.395 260.752 554.098 264.811L618.333 361.265C620.753 364.904 626.112 364.904 628.539 361.265Z" fill="white"></path>
<path d="M855.975 658.337C696.928 669.898 535.901 669.629 372.79 658.199C362.348 656.789 360.389 648.316 360.54 640.768C379.333 515.368 486.421 419.223 615.773 419.223C746.198 419.223 857.632 516.489 871.447 643.877C872.808 656.251 859.677 658.002 855.975 658.337Z" fill="white"></path>
<path d="M353.569 720.571C533.592 735.235 702.667 734.914 879.211 720.08C896.104 718.663 900.799 721.057 906.092 731.313L959.998 829.695C967.257 848.673 959.892 853.959 940.028 856.307C730.908 880.964 513.622 880.518 287.511 855.271C266.332 852.929 270.52 838.312 273.341 832.102L327.549 733.169C333.25 721.391 342.982 719.699 353.569 720.571Z" fill="white"></path>
</svg>