<svg width="3170" height="781" viewBox="0 0 3170 781" fill="none" xmlns="http://www.w3.org/2000/svg">
<g clip-path="url(#clip0_1586_1141)">
<path d="M358.039 111.265L422.281 14.8115C424.99 10.7521 422.064 5.32227 417.185 5.32227H288.707C283.808 5.32227 280.895 10.7521 283.598 14.8115L347.834 111.265C350.254 114.905 355.613 114.905 358.039 111.265Z" fill="#F87C56"></path>
<path d="M585.475 408.337C426.427 419.898 265.401 419.629 102.29 408.199C91.8479 406.789 89.8884 398.316 90.0396 390.768C108.832 265.368 215.92 169.223 345.273 169.223C475.697 169.223 587.132 266.489 600.947 393.877C602.308 406.251 589.177 408.002 585.475 408.337Z" fill="#F87C56"></path>
<path d="M83.0686 470.571C263.092 485.234 432.167 484.913 608.711 470.079C625.604 468.663 630.299 471.056 635.592 481.313L689.498 579.694C696.757 598.673 689.392 603.958 669.528 606.306C460.408 630.964 243.122 630.518 17.0114 605.27C-4.16822 602.929 0.0203619 588.311 2.84124 582.101L57.0494 483.169C62.7503 471.391 72.482 469.699 83.0686 470.571Z" fill="#F87C56"></path>
</g>
<path d="M1122.25 624.875C1089.1 624.875 1059.53 620.325 1033.53 611.225C1008.18 601.475 986.4 588.475 968.2 572.225C950 555.325 936.025 535.175 926.275 511.775C917.175 488.375 912.625 462.7 912.625 434.75H1005.25C1005.25 469.2 1015 495.85 1034.5 514.7C1054 532.9 1083.25 542 1122.25 542C1163.85 542 1194.4 533.55 1213.9 516.65C1234.05 499.75 1244.13 478.95 1244.13 454.25C1244.13 431.5 1236 413.625 1219.75 400.625C1203.5 387.625 1183.35 376.9 1159.3 368.45C1135.25 359.35 1108.93 350.575 1080.33 342.125C1052.38 333.675 1026.38 322.95 1002.33 309.95C978.275 296.3 958.125 278.75 941.875 257.3C925.625 235.85 917.5 207.25 917.5 171.5C917.5 149.4 922.375 128.275 932.125 108.125C941.875 87.325 955.85 69.125 974.05 53.525C992.25 37.275 1013.7 24.6 1038.4 15.5C1063.75 5.75001 1091.7 0.875 1122.25 0.875C1151.5 0.875 1178.15 5.75001 1202.2 15.5C1226.9 25.25 1248.02 38.9 1265.58 56.45C1283.78 73.35 1297.75 93.5 1307.5 116.9C1317.25 139.65 1322.12 164.35 1322.12 191H1229.5C1229.5 159.15 1219.43 133.475 1199.28 113.975C1179.78 93.825 1154.1 83.75 1122.25 83.75C1105.35 83.75 1089.75 86.35 1075.45 91.55C1061.8 96.1 1050.1 102.6 1040.35 111.05C1030.6 119.5 1023.12 128.925 1017.93 139.325C1012.73 149.725 1010.13 160.45 1010.13 171.5C1010.13 192.95 1018.25 209.525 1034.5 221.225C1050.75 232.925 1070.9 243 1094.95 251.45C1119 259.9 1145 268.35 1172.95 276.8C1201.55 284.6 1227.88 295.65 1251.93 309.95C1275.98 323.6 1296.13 341.8 1312.38 364.55C1328.63 387.3 1336.75 417.2 1336.75 454.25C1336.75 476.35 1331.55 497.8 1321.15 518.6C1311.4 538.75 1297.1 556.95 1278.25 573.2C1260.05 588.8 1237.62 601.475 1210.98 611.225C1184.98 620.325 1155.4 624.875 1122.25 624.875Z" fill="#FFFFFF"></path>
<path d="M1414.75 181.25H1502.5V620H1414.75V181.25ZM1458.62 113C1443.67 113 1431 107.8 1420.6 97.4C1410.2 87 1405 74.325 1405 59.375C1405 44.425 1410.2 31.75 1420.6 21.35C1431 10.95 1443.67 5.75 1458.62 5.75C1473.58 5.75 1486.25 10.95 1496.65 21.35C1507.05 31.75 1512.25 44.425 1512.25 59.375C1512.25 74.325 1507.05 87 1496.65 97.4C1486.25 107.8 1473.58 113 1458.62 113Z" fill="#FFFFFF"></path>
<path d="M1590.21 181.25H1653.59L1673.09 225.125C1680.89 216.025 1690.31 207.9 1701.36 200.75C1710.46 194.9 1721.84 189.375 1735.49 184.175C1749.79 178.975 1766.36 176.375 1785.21 176.375C1790.41 176.375 1794.64 176.7 1797.89 177.35C1801.14 178 1804.06 178.65 1806.66 179.3C1809.26 179.95 1811.86 180.6 1814.46 181.25V269C1811.86 268.35 1808.94 267.7 1805.69 267.05C1802.44 266.4 1798.86 265.75 1794.96 265.1C1791.71 264.45 1788.46 264.125 1785.21 264.125C1770.26 264.125 1756.29 267.05 1743.29 272.9C1730.29 278.75 1718.91 286.55 1709.16 296.3C1699.41 306.05 1691.61 317.425 1685.76 330.425C1680.56 343.425 1677.96 357.075 1677.96 371.375V620H1590.21V181.25Z" fill="#FFFFFF"></path>
<path d="M1862.79 181.25H1955.42L2077.29 498.125L2199.17 181.25H2291.79L2116.29 620H2038.29L1862.79 181.25Z" fill="#FFFFFF"></path>
<path d="M2516 624.875C2486.75 624.875 2459.45 619.35 2434.1 608.3C2408.75 597.25 2386.33 581.975 2366.83 562.475C2347.98 542.325 2333.03 518.6 2321.98 491.3C2311.58 464 2306.38 433.775 2306.38 400.625C2306.38 367.475 2311.58 337.25 2321.98 309.95C2333.03 282.65 2347.98 259.25 2366.83 239.75C2386.33 219.6 2408.75 204 2434.1 192.95C2459.45 181.9 2486.75 176.375 2516 176.375C2545.25 176.375 2572.55 181.9 2597.9 192.95C2623.25 204 2645.35 219.6 2664.2 239.75C2683.7 259.25 2698.65 282.65 2709.05 309.95C2720.1 337.25 2725.63 367.475 2725.63 400.625C2725.63 433.775 2720.1 464 2709.05 491.3C2698.65 518.6 2683.7 542.325 2664.2 562.475C2645.35 581.975 2623.25 597.25 2597.9 608.3C2572.55 619.35 2545.25 624.875 2516 624.875ZM2516 542C2531.6 542 2546.88 538.75 2561.83 532.25C2576.78 525.1 2589.78 515.35 2600.83 503C2611.88 490 2620.65 475.05 2627.15 458.15C2634.3 440.6 2637.88 421.425 2637.88 400.625C2637.88 379.825 2634.3 360.975 2627.15 344.075C2620.65 326.525 2611.88 311.575 2600.83 299.225C2589.78 286.225 2576.78 276.475 2561.83 269.975C2546.88 262.825 2531.6 259.25 2516 259.25C2500.4 259.25 2485.13 262.825 2470.18 269.975C2455.23 276.475 2442.23 286.225 2431.18 299.225C2420.13 311.575 2411.03 326.525 2403.88 344.075C2397.38 360.975 2394.13 379.825 2394.13 400.625C2394.13 421.425 2397.38 440.6 2403.88 458.15C2411.03 475.05 2420.13 490 2431.18 503C2442.23 515.35 2455.23 525.1 2470.18 532.25C2485.13 538.75 2500.4 542 2516 542Z" fill="#FFFFFF"></path>
<path d="M2842.63 780.875C2838.73 780.875 2835.15 780.55 2831.9 779.9C2828.65 779.9 2825.4 779.575 2822.15 778.925C2818.9 778.275 2815.98 777.3 2813.38 776V702.875C2838.08 702.875 2856.6 697.675 2868.95 687.275C2881.95 676.875 2891.05 664.2 2896.25 649.25L2910.88 605.375L2740.25 181.25H2832.88L2954.75 498.125L3076.63 181.25H3169.25L2984 649.25C2974.25 673.95 2964.5 694.425 2954.75 710.675C2945.65 727.575 2935.58 741.225 2924.53 751.625C2913.48 762.025 2901.13 769.5 2887.48 774.05C2874.48 778.6 2859.53 780.875 2842.63 780.875Z" fill="#FFFFFF"></path>
<defs>
<clipPath id="clip0_1586_1141">
<rect width="692" height="620" fill="white" transform="translate(0.5 5)"></rect>
</clipPath>
</defs>
</svg>